<svg width="16" height="18" viewBox="0 0 16 18" fill="none" xmlns="http://www.w3.org/2000/svg">
<path d="M11.2 10.7143V14.1429M4.8 3.85714V2.14286C4.8 1.83975 4.91238 1.54906 5.11242 1.33474C5.31246 1.12041 5.58377 1 5.86667 1H10.1333C10.4162 1 10.6875 1.12041 10.8876 1.33474C11.0876 1.54906 11.2 1.83975 11.2 2.14286V3.85714H4.8ZM0 4.42857H16H0ZM1.6 4.42857V15.8571C1.6 16.1602 1.71238 16.4509 1.91242 16.6653C2.11246 16.8796 2.38377 17 2.66667 17H13.3333C13.6162 17 13.8875 16.8796 14.0876 16.6653C14.2876 16.4509 14.4 16.1602 14.4 15.8571V4.42857H1.6ZM8 8.42857V14.1429V8.42857ZM4.8 10.7143V14.1429V10.7143Z" stroke="black"/>
</svg>
