<svg width="12" height="12" viewBox="0 0 12 12" fill="none" xmlns="http://www.w3.org/2000/svg">
<path d="M6.03828 8.69336C6.04997 8.7083 6.06491 8.72038 6.08197 8.72869C6.09902 8.737 6.11775 8.74132 6.13672 8.74132C6.15569 8.74132 6.17441 8.737 6.19147 8.72869C6.20852 8.72038 6.22346 8.7083 6.23516 8.69336L7.98516 6.4793C8.04922 6.39805 7.99141 6.27773 7.88672 6.27773H6.72891V0.990234C6.72891 0.921484 6.67266 0.865234 6.60391 0.865234H5.66641C5.59766 0.865234 5.54141 0.921484 5.54141 0.990234V6.27617H4.38672C4.28203 6.27617 4.22422 6.39648 4.28828 6.47773L6.03828 8.69336ZM11.8555 8.14648H10.918C10.8492 8.14648 10.793 8.20273 10.793 8.27148V10.6777H1.48047V8.27148C1.48047 8.20273 1.42422 8.14648 1.35547 8.14648H0.417969C0.349219 8.14648 0.292969 8.20273 0.292969 8.27148V11.3652C0.292969 11.6418 0.516406 11.8652 0.792969 11.8652H11.4805C11.757 11.8652 11.9805 11.6418 11.9805 11.3652V8.27148C11.9805 8.20273 11.9242 8.14648 11.8555 8.14648Z" fill="#current"/>
</svg>
