<svg width="12" height="12" viewBox="0 0 12 12" fill="none" xmlns="http://www.w3.org/2000/svg">
<path d="M5.41683 5.4165H8.91683C9.07154 5.4165 9.21992 5.35505 9.32931 5.24565C9.43871 5.13625 9.50017 4.98788 9.50017 4.83317C9.50017 4.67846 9.43871 4.53009 9.32931 4.42069C9.21992 4.3113 9.07154 4.24984 8.91683 4.24984H5.41683C5.26212 4.24984 5.11375 4.3113 5.00435 4.42069C4.89496 4.53009 4.8335 4.67846 4.8335 4.83317C4.8335 4.98788 4.89496 5.13625 5.00435 5.24565C5.11375 5.35505 5.26212 5.4165 5.41683 5.4165ZM3.0835 4.24984C2.96813 4.24984 2.85535 4.28405 2.75942 4.34815C2.66349 4.41224 2.58872 4.50335 2.54457 4.60994C2.50042 4.71653 2.48887 4.83382 2.51137 4.94697C2.53388 5.06013 2.58944 5.16407 2.67102 5.24565C2.7526 5.32723 2.85654 5.38279 2.9697 5.4053C3.08285 5.4278 3.20014 5.41625 3.30673 5.3721C3.41332 5.32795 3.50443 5.25318 3.56852 5.15725C3.63262 5.06132 3.66683 4.94854 3.66683 4.83317C3.66683 4.67846 3.60537 4.53009 3.49598 4.42069C3.38658 4.3113 3.23821 4.24984 3.0835 4.24984ZM3.0835 6.58317C2.96813 6.58317 2.85535 6.61738 2.75942 6.68148C2.66349 6.74558 2.58872 6.83668 2.54457 6.94327C2.50042 7.04986 2.48887 7.16715 2.51137 7.28031C2.53388 7.39346 2.58944 7.4974 2.67102 7.57898C2.7526 7.66056 2.85654 7.71612 2.9697 7.73863C3.08285 7.76114 3.20014 7.74958 3.30673 7.70543C3.41332 7.66128 3.50443 7.58651 3.56852 7.49059C3.63262 7.39466 3.66683 7.28188 3.66683 7.1665C3.66683 7.01179 3.60537 6.86342 3.49598 6.75402C3.38658 6.64463 3.23821 6.58317 3.0835 6.58317ZM6.00017 0.166504C5.23412 0.166504 4.47558 0.317388 3.76785 0.61054C3.06011 0.903692 2.41705 1.33337 1.87538 1.87505C0.781414 2.96901 0.166833 4.45274 0.166833 5.99984C0.161733 7.34683 0.628128 8.65315 1.48517 9.69234L0.318499 10.859C0.237557 10.941 0.182726 11.0452 0.160925 11.1584C0.139123 11.2715 0.151328 11.3886 0.195999 11.4948C0.24445 11.5998 0.322993 11.688 0.42166 11.7482C0.520327 11.8085 0.634667 11.838 0.750166 11.8332H6.00017C7.54726 11.8332 9.03099 11.2186 10.125 10.1246C11.2189 9.03066 11.8335 7.54693 11.8335 5.99984C11.8335 4.45274 11.2189 2.96901 10.125 1.87505C9.03099 0.781085 7.54726 0.166504 6.00017 0.166504ZM6.00017 10.6665H2.156L2.6985 10.124C2.75362 10.07 2.79747 10.0056 2.82751 9.93446C2.85755 9.86336 2.87318 9.78702 2.8735 9.70984C2.87131 9.55597 2.80841 9.4092 2.6985 9.3015C1.93467 8.53853 1.45902 7.53432 1.35257 6.45997C1.24612 5.38562 1.51547 4.30759 2.11472 3.40956C2.71396 2.51153 3.60604 1.84905 4.63897 1.53499C5.67189 1.22093 6.78175 1.27472 7.77946 1.6872C8.77717 2.09968 9.601 2.84533 10.1106 3.79711C10.6202 4.74888 10.784 5.8479 10.5742 6.90692C10.3643 7.96594 9.79376 8.91945 8.95973 9.60498C8.1257 10.2905 7.07978 10.6657 6.00017 10.6665ZM8.91683 6.58317H5.41683C5.26212 6.58317 5.11375 6.64463 5.00435 6.75402C4.89496 6.86342 4.8335 7.01179 4.8335 7.1665C4.8335 7.32121 4.89496 7.46959 5.00435 7.57898C5.11375 7.68838 5.26212 7.74984 5.41683 7.74984H8.91683C9.07154 7.74984 9.21992 7.68838 9.32931 7.57898C9.43871 7.46959 9.50017 7.32121 9.50017 7.1665C9.50017 7.01179 9.43871 6.86342 9.32931 6.75402C9.21992 6.64463 9.07154 6.58317 8.91683 6.58317Z" fill="#current"/>
</svg>
