<svg width="12" height="6" viewBox="0 0 12 6" fill="none" xmlns="http://www.w3.org/2000/svg">
<path d="M6.00155 5.8334C5.80684 5.83378 5.61815 5.76597 5.46822 5.64173L0.468219 1.47507C0.298038 1.33362 0.191018 1.13036 0.170702 0.910003C0.150385 0.689648 0.218437 0.470247 0.359885 0.300067C0.501334 0.129886 0.704594 0.0228661 0.924949 0.0025497C1.1453 -0.0177667 1.3647 0.0502844 1.53489 0.191733L6.00155 3.92507L10.4682 0.325067C10.5535 0.255846 10.6515 0.204152 10.7568 0.172959C10.8621 0.141766 10.9725 0.131688 11.0817 0.143304C11.1909 0.15492 11.2967 0.188001 11.3931 0.240646C11.4894 0.29329 11.5745 0.364461 11.6432 0.450067C11.7195 0.535751 11.7773 0.636274 11.813 0.745335C11.8487 0.854396 11.8614 0.969647 11.8505 1.08387C11.8395 1.19809 11.8051 1.30881 11.7493 1.40911C11.6936 1.50941 11.6178 1.59711 11.5266 1.66673L6.52655 5.69173C6.37232 5.79633 6.18747 5.84621 6.00155 5.8334Z" fill="current"/>
</svg>
