<svg width="10" height="10" viewBox="0 0 10 10" fill="none" xmlns="http://www.w3.org/2000/svg">
<path d="M0.957548 0.197754L1.01155 0.202554C1.07149 0.213505 1.12668 0.24245 1.16976 0.285537C1.21285 0.328625 1.2418 0.383811 1.25275 0.443754L1.25755 0.497754V1.82495C1.97553 1.0106 2.94838 0.463699 4.01726 0.273539C5.08615 0.0833789 6.18792 0.261193 7.14272 0.777951C8.09752 1.29471 8.84893 2.11989 9.27428 3.11876C9.69963 4.11763 9.77379 5.2312 9.48466 6.27766C9.19552 7.32412 8.56017 8.24165 7.68234 8.88046C6.8045 9.51927 5.73604 9.84162 4.65138 9.79489C3.56671 9.74815 2.52993 9.33509 1.7103 8.62314C0.890666 7.91119 0.336596 6.9424 0.138548 5.87495C0.0744278 5.48238 0.048307 5.08454 0.0605483 4.68695C0.0674268 4.61015 0.103615 4.53894 0.161603 4.48811C0.21959 4.43729 0.294923 4.41074 0.371966 4.41398C0.449009 4.41722 0.521845 4.45001 0.575357 4.50553C0.628869 4.56105 0.658947 4.63504 0.659348 4.71215C0.649049 5.06452 0.67195 5.41708 0.727748 5.76515C0.90464 6.71935 1.40651 7.58285 2.14805 8.20887C2.88959 8.8349 3.82504 9.18481 4.79539 9.19913C5.76574 9.21346 6.71111 8.89131 7.4708 8.28746C8.2305 7.6836 8.75764 6.83529 8.96263 5.88673C9.16761 4.93817 9.03778 3.94789 8.59521 3.08422C8.15265 2.22056 7.42465 1.5368 6.53497 1.14918C5.64529 0.761551 4.64883 0.693981 3.71496 0.95795C2.7811 1.22192 1.96746 1.80114 1.41235 2.59715L3.35755 2.59775L3.41155 2.60255C3.48072 2.61508 3.54329 2.65149 3.58835 2.70545C3.63341 2.7594 3.6581 2.82746 3.6581 2.89775C3.6581 2.96805 3.63341 3.03611 3.58835 3.09006C3.54329 3.14401 3.48072 3.18043 3.41155 3.19295L3.35755 3.19775H0.957548L0.903548 3.19295C0.843606 3.182 0.788419 3.15306 0.745332 3.10997C0.702244 3.06688 0.673299 3.0117 0.662348 2.95175L0.657548 2.89775V0.497754L0.662348 0.443754C0.673299 0.383811 0.702244 0.328625 0.745332 0.285537C0.788419 0.24245 0.843606 0.213505 0.903548 0.202554L0.957548 0.197754ZM4.55755 2.59775L4.61155 2.60255C4.67149 2.61351 4.72668 2.64245 4.76976 2.68554C4.81285 2.72863 4.8418 2.78381 4.85275 2.84375L4.85755 2.89775V5.30015H6.05755L6.11155 5.30495C6.18072 5.31748 6.24329 5.35389 6.28835 5.40785C6.33341 5.4618 6.3581 5.52986 6.3581 5.60015C6.3581 5.67045 6.33341 5.73851 6.28835 5.79246C6.24329 5.84641 6.18072 5.88283 6.11155 5.89535L6.05755 5.90015H4.55755L4.50355 5.89535C4.44361 5.8844 4.38842 5.85546 4.34533 5.81237C4.30224 5.76928 4.2733 5.7141 4.26235 5.65415L4.25755 5.60015V2.89775L4.26235 2.84375C4.2733 2.78381 4.30224 2.72863 4.34533 2.68554C4.38842 2.64245 4.44361 2.61351 4.50355 2.60255L4.55755 2.59775Z" fill="#current"/>
</svg>
