<svg width="12" height="12" viewBox="0 0 12 12" fill="none" xmlns="http://www.w3.org/2000/svg">
<path d="M5.51282 1.83011C6.11445 1.23166 6.92628 0.892247 7.77484 0.884416C8.62339 0.876585 9.44135 1.20095 10.0539 1.7882C10.6665 2.37545 11.0251 3.17899 11.0531 4.02712C11.081 4.87525 10.7762 5.70068 10.2037 6.32703L10.1007 6.43373L5.33407 11.1993L5.31457 11.2156C4.94335 11.5491 4.46165 11.7331 3.96261 11.7321C3.46358 11.731 2.98265 11.545 2.61282 11.2099C2.243 10.8749 2.01054 10.4146 1.9604 9.91808C1.91025 9.42157 2.04599 8.9241 2.34136 8.52186C2.35428 8.49688 2.3697 8.47329 2.3874 8.45144L2.41665 8.41894L2.46324 8.37128L2.54015 8.29111L2.54124 8.29273L6.56907 4.25515C6.63782 4.18613 6.72908 4.14411 6.82622 4.13675C6.92336 4.12939 7.01992 4.15719 7.09828 4.21507L7.14378 4.25461C7.21266 4.32333 7.25459 4.41448 7.26195 4.5115C7.2693 4.60852 7.24159 4.70496 7.18386 4.78328L7.14432 4.82878L3.0309 8.95249C2.84116 9.18618 2.74551 9.4823 2.7627 9.78283C2.77989 10.0834 2.90867 10.3666 3.12382 10.5772C3.33897 10.7877 3.62497 10.9103 3.92581 10.921C4.22664 10.9317 4.52062 10.8297 4.75015 10.6349L9.53415 5.85198C9.97441 5.40054 10.2227 4.79611 10.2268 4.16555C10.231 3.53499 9.99077 2.92733 9.55653 2.4701C9.12229 2.01287 8.52782 1.74162 7.89788 1.71329C7.26794 1.68496 6.65152 1.90175 6.17798 2.31815L6.08698 2.40482L6.07994 2.4124L0.91461 7.57773C0.842122 7.65042 0.744803 7.69297 0.64222 7.69683C0.539637 7.70069 0.439397 7.66557 0.361655 7.59853C0.283912 7.53149 0.234431 7.4375 0.22316 7.33547C0.211889 7.23343 0.239665 7.13092 0.300902 7.04853L0.339902 7.00303L5.51228 1.83011H5.51336H5.51282Z" fill="#current"/>
</svg>
