<svg width="12" height="9" viewBox="0 0 12 9" fill="none" xmlns="http://www.w3.org/2000/svg">
<path d="M11.3996 1.90735e-06L0.599331 1.90735e-06C0.489984 0.00034523 0.382799 0.0305567 0.289317 0.0873842C0.195834 0.144212 0.119593 0.225503 0.068799 0.322508C0.0180054 0.419514 -0.00541782 0.52856 0.00105286 0.637909C0.00752258 0.747257 0.0436401 0.852768 0.105517 0.943084L5.50567 8.75702C5.72948 9.08099 6.26829 9.08099 6.4927 8.75702L11.8929 0.943084C11.9554 0.852957 11.992 0.747393 11.9988 0.637862C12.0057 0.528331 11.9824 0.419022 11.9315 0.321811C11.8807 0.2246 11.8042 0.143205 11.7105 0.0864697C11.6167 0.0297337 11.5092 -0.000171661 11.3996 1.90735e-06Z" fill="current"/>
</svg>
