<svg width="14" height="16" viewBox="0 0 14 16" fill="none" xmlns="http://www.w3.org/2000/svg">
<path d="M10.9496 5C10.6496 4.7 10.1996 4.5 9.74961 4.5C9.29961 4.5 8.84961 4.7 8.54961 5L7.84961 4.3C8.34961 3.8 9.04961 3.5 9.74961 3.5C10.4496 3.5 11.1996 3.8 11.6496 4.3L10.9496 5Z" fill="current"/>
<path d="M11 3C11.2761 3 11.5 2.77614 11.5 2.5C11.5 2.22386 11.2761 2 11 2C10.7239 2 10.5 2.22386 10.5 2.5C10.5 2.77614 10.7239 3 11 3Z" fill="current"/>
<path d="M8.5 3C8.77614 3 9 2.77614 9 2.5C9 2.22386 8.77614 2 8.5 2C8.22386 2 8 2.22386 8 2.5C8 2.77614 8.22386 3 8.5 3Z" fill="current"/>
<path d="M6.5 0H13C13.55 0 14 0.45 14 1V6C14 6.55 13.55 7 13 7H11.25L10.4 8.5L9.5 8L10.65 6H13V1H6.5V6H9V7H6.5C5.95 7 5.5 6.55 5.5 6V1C5.5 0.45 5.95 0 6.5 0ZM9 9.5V12.5C9 12.8 8.8 13 8.5 13H6V14H8.5C9.35 14 10 13.35 10 12.5V9.5H9ZM6.7 10.2C6.3 10.7 5.65 11 5 11C4.35 11 3.7 10.7 3.3 10.2L2.5 10.8C3.1 11.5 4 12 5 12C6 12 6.9 11.55 7.5 10.8L6.7 10.2Z" fill="current"/>
<path d="M6.75 9.5C7.16421 9.5 7.5 9.16421 7.5 8.75C7.5 8.33579 7.16421 8 6.75 8C6.33579 8 6 8.33579 6 8.75C6 9.16421 6.33579 9.5 6.75 9.5Z" fill="current"/>
<path d="M3.25 9.5C3.66421 9.5 4 9.16421 4 8.75C4 8.33579 3.66421 8 3.25 8C2.83579 8 2.5 8.33579 2.5 8.75C2.5 9.16421 2.83579 9.5 3.25 9.5Z" fill="current"/>
<path d="M4.05 13H1.5C1.2 13 1 12.8 1 12.5V7C1 6.7 1.2 6.5 1.5 6.5H4V5.5H1.5C0.65 5.5 0 6.15 0 7V12.5C0 13.35 0.65 14 1.5 14H3.5L4.65 16L5.5 15.5L4.05 13Z" fill="current"/>
</svg>
