<svg width="22" height="21" viewBox="0 0 22 21" fill="none" xmlns="http://www.w3.org/2000/svg">
<path d="M10.4431 3.27512C11.415 2.30839 12.7264 1.76011 14.0971 1.74746C15.4679 1.73481 16.7892 2.25879 17.7787 3.20742C18.7683 4.15605 19.3475 5.45409 19.3927 6.82414C19.4379 8.19419 18.9455 9.52759 18.0206 10.5394L17.8543 10.7117L10.1543 18.41L10.1228 18.4362C9.52318 18.975 8.74505 19.2723 7.93891 19.2706C7.13278 19.2689 6.3559 18.9684 5.75848 18.4272C5.16107 17.8859 4.78556 17.1424 4.70456 16.3403C4.62356 15.5382 4.84283 14.7346 5.31996 14.0849C5.34083 14.0445 5.36575 14.0064 5.39434 13.9711L5.44159 13.9186L5.51684 13.8416L5.64109 13.7121L5.64284 13.7147L12.1493 7.1925C12.2604 7.081 12.4078 7.01312 12.5647 7.00123C12.7217 6.98934 12.8776 7.03425 13.0042 7.12775L13.0777 7.19162C13.189 7.30263 13.2567 7.44988 13.2686 7.6066C13.2805 7.76333 13.2357 7.91911 13.1425 8.04562L13.0786 8.11912L6.43384 14.7805C6.12733 15.158 5.97283 15.6364 6.00059 16.1218C6.02836 16.6073 6.23639 17.0649 6.58394 17.405C6.93148 17.7451 7.3935 17.9432 7.87946 17.9604C8.36542 17.9777 8.84031 17.8129 9.21109 17.4982L16.9391 9.772C17.6503 9.04274 18.0513 8.06636 18.0581 7.04776C18.0648 6.02916 17.6767 5.04755 16.9752 4.30895C16.2738 3.57034 15.3135 3.13218 14.2959 3.08642C13.2783 3.04065 12.2825 3.39084 11.5176 4.0635L11.3706 4.2035L11.3592 4.21575L3.01521 12.5597C2.89812 12.6772 2.74091 12.7459 2.5752 12.7521C2.40949 12.7584 2.24756 12.7016 2.12198 12.5933C1.99639 12.485 1.91646 12.3332 1.89826 12.1684C1.88005 12.0036 1.92492 11.838 2.02384 11.7049L2.08684 11.6314L10.4422 3.27512H10.444H10.4431Z" fill="black"/>
<rect width="10" height="10" transform="translate(11 10.1348)" fill="white"/>
<path d="M12 11.6874C12 11.5408 12.0593 11.4003 12.1648 11.2966C12.2702 11.193 12.4133 11.1348 12.5625 11.1348H18.1875C18.3367 11.1348 18.4798 11.193 18.5852 11.2966C18.6907 11.4003 18.75 11.5408 18.75 11.6874C18.75 11.834 18.6907 11.9745 18.5852 12.0782C18.4798 12.1818 18.3367 12.24 18.1875 12.24H12.5625C12.4133 12.24 12.2702 12.1818 12.1648 12.0782C12.0593 11.9745 12 11.834 12 11.6874V11.6874ZM12 17.5821C12 17.4356 12.0593 17.295 12.1648 17.1914C12.2702 17.0877 12.4133 17.0295 12.5625 17.0295H17.4375C17.5867 17.0295 17.7298 17.0877 17.8352 17.1914C17.9407 17.295 18 17.4356 18 17.5821C18 17.7287 17.9407 17.8693 17.8352 17.9729C17.7298 18.0765 17.5867 18.1348 17.4375 18.1348H12.5625C12.4133 18.1348 12.2702 18.0765 12.1648 17.9729C12.0593 17.8693 12 17.7287 12 17.5821V17.5821ZM12.5625 14.0821C12.4133 14.0821 12.2702 14.1404 12.1648 14.244C12.0593 14.3476 12 14.4882 12 14.6348C12 14.7813 12.0593 14.9219 12.1648 15.0255C12.2702 15.1292 12.4133 15.1874 12.5625 15.1874H20.4375C20.5867 15.1874 20.7298 15.1292 20.8352 15.0255C20.9407 14.9219 21 14.7813 21 14.6348C21 14.4882 20.9407 14.3476 20.8352 14.244C20.7298 14.1404 20.5867 14.0821 20.4375 14.0821H12.5625Z" fill="black"/>
</svg>
