<svg width="11" height="6" viewBox="0 0 11 6" fill="none" xmlns="http://www.w3.org/2000/svg">
<path d="M5.56274 5.45824C5.39723 5.45857 5.23684 5.40093 5.1094 5.29533L0.859403 1.75366C0.714749 1.63343 0.623782 1.46066 0.606513 1.27336C0.589244 1.08605 0.647088 0.899564 0.767319 0.75491C0.887551 0.610257 1.06032 0.51929 1.24762 0.502021C1.43493 0.484752 1.62142 0.542595 1.76607 0.662827L5.56274 3.83616L9.3594 0.776161C9.43186 0.717322 9.51522 0.673383 9.60472 0.646869C9.69421 0.620355 9.78805 0.611788 9.88086 0.621662C9.97368 0.631536 10.0636 0.659654 10.1455 0.704402C10.2274 0.74915 10.2997 0.809646 10.3582 0.88241C10.423 0.955242 10.4722 1.04069 10.5025 1.13339C10.5328 1.22609 10.5436 1.32405 10.5343 1.42114C10.525 1.51823 10.4957 1.61234 10.4484 1.6976C10.401 1.78285 10.3365 1.8574 10.259 1.91658L6.00899 5.33783C5.87788 5.42673 5.72077 5.46913 5.56274 5.45824Z" fill="current"/>
</svg>
