<svg width="14" height="16" viewBox="0 0 14 16" fill="none" xmlns="http://www.w3.org/2000/svg">
<path fill-rule="evenodd" clip-rule="evenodd" d="M7 15.9989C7.26517 15.9989 7.51948 15.8936 7.70698 15.7061C7.89448 15.5186 7.99982 15.2642 7.99982 14.9991V3.41517L12.291 7.7084C12.384 7.80136 12.4944 7.8751 12.6158 7.9254C12.7373 7.97571 12.8675 8.00161 12.9989 8.00161C13.1304 8.00161 13.2606 7.97571 13.382 7.9254C13.5035 7.8751 13.6138 7.80136 13.7068 7.7084C13.7997 7.61544 13.8735 7.50508 13.9238 7.38362C13.9741 7.26217 14 7.13199 14 7.00052C14 6.86906 13.9741 6.73888 13.9238 6.61743C13.8735 6.49597 13.7997 6.38561 13.7068 6.29265L7.70787 0.293734C7.615 0.200625 7.50467 0.126752 7.3832 0.0763484C7.26173 0.0259446 7.13151 0 7 0C6.86849 0 6.73827 0.0259446 6.6168 0.0763484C6.49533 0.126752 6.385 0.200625 6.29213 0.293734L0.293211 6.29265C0.105471 6.48039 0 6.73502 0 7.00052C0 7.26603 0.105471 7.52066 0.293211 7.7084C0.48095 7.89614 0.735579 8.00161 1.00108 8.00161C1.26659 8.00161 1.52122 7.89614 1.70896 7.7084L6.00018 3.41517V14.9991C6.00018 15.2642 6.10552 15.5186 6.29302 15.7061C6.48052 15.8936 6.73483 15.9989 7 15.9989Z" fill="black"/>
</svg>
