<svg width="15" height="17" viewBox="0 0 15 17" fill="none" xmlns="http://www.w3.org/2000/svg">
<path d="M7.49994 0.5H1.49994C1.10211 0.5 0.720583 0.658035 0.439279 0.93934C0.157974 1.22064 -6.10352e-05 1.60218 -6.10352e-05 2V14C-6.10352e-05 14.3978 0.157974 14.7794 0.439279 15.0607C0.720583 15.342 1.10211 15.5 1.49994 15.5H6.74994C6.44244 15.3125 6.14994 15.08 5.89494 14.825C5.64744 14.5775 5.43744 14.3 5.24994 14H1.49994V2H6.74994V5.75H10.4999V6.635C11.0324 6.755 11.5424 6.9575 11.9999 7.25V5L7.49994 0.5ZM12.2324 13.175C13.2299 11.5925 12.7499 9.5 11.1824 8.51C9.59994 7.5125 7.49994 8 6.51744 9.56C5.51244 11.1425 5.99994 13.2275 7.56744 14.225C8.66244 14.9225 10.0574 14.9225 11.1599 14.24L13.4999 16.5425L14.5424 15.5L12.2324 13.175ZM9.37494 13.25C8.87766 13.25 8.40074 13.0525 8.04911 12.7008C7.69748 12.3492 7.49994 11.8723 7.49994 11.375C7.49994 10.8777 7.69748 10.4008 8.04911 10.0492C8.40074 9.69754 8.87766 9.5 9.37494 9.5C9.87222 9.5 10.3491 9.69754 10.7008 10.0492C11.0524 10.4008 11.2499 10.8777 11.2499 11.375C11.2499 11.8723 11.0524 12.3492 10.7008 12.7008C10.3491 13.0525 9.87222 13.25 9.37494 13.25Z" fill="current"/>
</svg>
