<svg width="12" height="8" viewBox="0 0 12 8" fill="none" xmlns="http://www.w3.org/2000/svg">
<path d="M11.3081 2.1789L6.40807 7.09348C6.34974 7.15181 6.28655 7.19323 6.21849 7.21773C6.15043 7.24223 6.07752 7.25429 5.99974 7.2539C5.92196 7.2539 5.84905 7.24184 5.78099 7.21773C5.71293 7.19362 5.64974 7.1522 5.59141 7.09348L0.676823 2.1789C0.540712 2.04279 0.472656 1.87265 0.472656 1.66848C0.472656 1.46431 0.545573 1.28931 0.691406 1.14348C0.83724 0.997648 1.00738 0.924731 1.20182 0.924731C1.39627 0.924731 1.56641 0.997648 1.71224 1.14348L5.99974 5.43098L10.2872 1.14348C10.4234 1.00737 10.5912 0.939314 10.7907 0.939314C10.9902 0.939314 11.1626 1.01223 11.3081 1.15806C11.4539 1.3039 11.5268 1.47404 11.5268 1.66848C11.5268 1.86293 11.4539 2.03306 11.3081 2.1789Z" fill="#current"/>
</svg>
