<svg width="20" height="20" viewBox="0 0 20 20" fill="none" xmlns="http://www.w3.org/2000/svg">
<path d="M10.3999 16.1209L9.99978 15.8685L9.59965 16.1209L4.75239 19.1784L4.74445 19.1834L4.73664 19.1886C4.64955 19.2466 4.59325 19.2531 4.54611 19.249C4.45615 19.2412 4.39545 19.2141 4.34131 19.17L3.8677 19.7516L4.34131 19.17C4.25932 19.1033 4.19303 19.0193 4.14169 18.9068C4.12137 18.8619 4.104 18.791 4.13281 18.6599C4.13285 18.6597 4.13288 18.6596 4.13292 18.6594L5.41744 12.8821L5.51218 12.4559L5.18846 12.1631L0.902584 8.286C0.810157 8.19752 0.776508 8.12313 0.76308 8.05779L0.762484 8.05494C0.741128 7.95308 0.747259 7.86225 0.780149 7.76755C0.822348 7.64604 0.875531 7.57287 0.928714 7.52414C0.944607 7.50958 1.00164 7.46643 1.15689 7.44064L6.79787 6.92305L7.25409 6.88119L7.42512 6.45617L9.61515 1.01379L9.61622 1.0111C9.65927 0.902929 9.70865 0.856299 9.7571 0.827367L9.75818 0.82672C9.85896 0.766306 9.93616 0.75 9.99978 0.75C10.0634 0.75 10.1412 0.76631 10.243 0.827019C10.2907 0.85572 10.3401 0.902471 10.3833 1.01111L10.3844 1.01379L12.5744 6.45617L12.7455 6.88119L13.2017 6.92305L18.8427 7.44064C18.9979 7.46643 19.055 7.50958 19.0708 7.52414C19.124 7.57286 19.1772 7.64603 19.2194 7.76755C19.2525 7.86277 19.2589 7.95414 19.238 8.05615C19.224 8.12242 19.1895 8.19742 19.097 8.28601L14.8111 12.1631L14.4874 12.4559L14.5821 12.8821L15.8666 18.6594C15.8667 18.6596 15.8667 18.6598 15.8668 18.66C15.8956 18.7914 15.8781 18.8622 15.8577 18.9071L16.5407 19.2171L15.8582 18.9062C15.8068 19.0189 15.7404 19.1031 15.6582 19.17L16.1319 19.7516L15.6582 19.17C15.6041 19.2141 15.5434 19.2412 15.4535 19.249C15.4063 19.2531 15.35 19.2466 15.2629 19.1886L15.2551 19.1834L15.2472 19.1784L10.3999 16.1209Z" stroke="current" stroke-width="1.5"/>
</svg>
