<svg width="14" height="16" viewBox="0 0 14 16" fill="none" xmlns="http://www.w3.org/2000/svg">
<path fill-rule="evenodd" clip-rule="evenodd" d="M7 0C7.26517 0 7.51948 0.105338 7.70698 0.292841C7.89448 0.480343 7.99982 0.734651 7.99982 0.999819V12.5837L12.291 8.2905C12.384 8.19754 12.4944 8.1238 12.6158 8.07349C12.7373 8.02319 12.8675 7.99729 12.9989 7.99729C13.1304 7.99729 13.2606 8.02319 13.382 8.07349C13.5035 8.1238 13.6138 8.19754 13.7068 8.2905C13.7997 8.38346 13.8735 8.49382 13.9238 8.61528C13.9741 8.73673 14 8.86691 14 8.99837C14 9.12984 13.9741 9.26002 13.9238 9.38147C13.8735 9.50293 13.7997 9.61329 13.7068 9.70625L7.70787 15.7052C7.615 15.7983 7.50467 15.8721 7.3832 15.9225C7.26173 15.973 7.13151 15.9989 7 15.9989C6.86849 15.9989 6.73827 15.973 6.6168 15.9225C6.49533 15.8721 6.385 15.7983 6.29213 15.7052L0.293211 9.70625C0.200251 9.61329 0.126512 9.50293 0.0762029 9.38147C0.0258938 9.26002 0 9.12984 0 8.99837C0 8.86691 0.0258938 8.73673 0.0762029 8.61528C0.126512 8.49382 0.200251 8.38346 0.293211 8.2905C0.48095 8.10276 0.735579 7.99729 1.00108 7.99729C1.13255 7.99729 1.26272 8.02319 1.38418 8.07349C1.50564 8.1238 1.616 8.19754 1.70896 8.2905L6.00018 12.5837V0.999819C6.00018 0.734651 6.10552 0.480343 6.29302 0.292841C6.48052 0.105338 6.73483 0 7 0Z" fill="black"/>
</svg>
