<svg width="13" height="13" viewBox="0 0 13 13" fill="none" xmlns="http://www.w3.org/2000/svg">
<path d="M8.875 0.25C9.37228 0.25 9.84919 0.447544 10.2008 0.799175C10.5525 1.15081 10.75 1.62772 10.75 2.125V5.2C10.5103 5.07735 10.2591 4.97863 10 4.90525V3.25H1V8.875C1 9.17337 1.11853 9.45952 1.3295 9.6705C1.54048 9.88147 1.82663 10 2.125 10H4.90525C4.9795 10.2618 5.07775 10.5122 5.2 10.75H2.125C1.62772 10.75 1.15081 10.5525 0.799175 10.2008C0.447544 9.84919 0.25 9.37228 0.25 8.875V2.125C0.25 1.62772 0.447544 1.15081 0.799175 0.799175C1.15081 0.447544 1.62772 0.25 2.125 0.25H8.875ZM8.875 1H2.125C1.82663 1 1.54048 1.11853 1.3295 1.3295C1.11853 1.54048 1 1.82663 1 2.125V2.5H10V2.125C10 1.82663 9.88147 1.54048 9.6705 1.3295C9.45952 1.11853 9.17337 1 8.875 1ZM12.25 8.875C12.25 9.77011 11.8944 10.6285 11.2615 11.2615C10.6285 11.8944 9.77011 12.25 8.875 12.25C7.97989 12.25 7.12145 11.8944 6.48851 11.2615C5.85558 10.6285 5.5 9.77011 5.5 8.875C5.5 7.97989 5.85558 7.12145 6.48851 6.48851C7.12145 5.85558 7.97989 5.5 8.875 5.5C9.77011 5.5 10.6285 5.85558 11.2615 6.48851C11.8944 7.12145 12.25 7.97989 12.25 8.875ZM9.25 7.375C9.25 7.27554 9.21049 7.18016 9.14017 7.10983C9.06984 7.03951 8.97446 7 8.875 7C8.77554 7 8.68016 7.03951 8.60983 7.10983C8.53951 7.18016 8.5 7.27554 8.5 7.375V8.5H7.375C7.27554 8.5 7.18016 8.53951 7.10983 8.60983C7.03951 8.68016 7 8.77554 7 8.875C7 8.97446 7.03951 9.06984 7.10983 9.14017C7.18016 9.21049 7.27554 9.25 7.375 9.25H8.5V10.375C8.5 10.4745 8.53951 10.5698 8.60983 10.6402C8.68016 10.7105 8.77554 10.75 8.875 10.75C8.97446 10.75 9.06984 10.7105 9.14017 10.6402C9.21049 10.5698 9.25 10.4745 9.25 10.375V9.25H10.375C10.4745 9.25 10.5698 9.21049 10.6402 9.14017C10.7105 9.06984 10.75 8.97446 10.75 8.875C10.75 8.77554 10.7105 8.68016 10.6402 8.60983C10.5698 8.53951 10.4745 8.5 10.375 8.5H9.25V7.375Z" fill="current"/>
</svg>
