<svg width="16" height="14" viewBox="0 0 16 14" fill="none" xmlns="http://www.w3.org/2000/svg">
<path d="M4.92678 7L4.16678 5.032H1.79078L1.02278 7H0.550781L2.79878 1.272H3.21478L5.40678 7H4.92678ZM3.25478 2.552C3.23878 2.49867 3.21478 2.42667 3.18278 2.336C3.15078 2.24533 3.11878 2.14933 3.08678 2.048C3.05478 1.94667 3.02278 1.856 2.99078 1.776C2.96411 1.86667 2.93478 1.96 2.90278 2.056C2.87611 2.152 2.84678 2.24267 2.81478 2.328C2.78811 2.41333 2.76145 2.49067 2.73478 2.56L1.95078 4.616H4.02278L3.25478 2.552ZM7.79397 1.288C8.26864 1.288 8.65797 1.336 8.96197 1.432C9.26597 1.528 9.48997 1.68 9.63397 1.888C9.7833 2.09067 9.85797 2.35467 9.85797 2.68C9.85797 2.89867 9.8153 3.09867 9.72997 3.28C9.64997 3.46133 9.5273 3.61333 9.36197 3.736C9.19664 3.85333 8.99397 3.93333 8.75397 3.976V4C9.0313 4.048 9.2633 4.128 9.44997 4.24C9.64197 4.352 9.78597 4.504 9.88197 4.696C9.97797 4.88267 10.026 5.10933 10.026 5.376C10.026 5.744 9.94064 6.05067 9.76997 6.296C9.60464 6.536 9.36997 6.71467 9.06597 6.832C8.7673 6.944 8.41797 7 8.01797 7H6.21797V1.288H7.79397ZM7.90597 3.808C8.43397 3.808 8.81264 3.71733 9.04197 3.536C9.2713 3.35467 9.38597 3.08533 9.38597 2.728C9.38597 2.36 9.26064 2.096 9.00997 1.936C8.7593 1.776 8.35664 1.696 7.80197 1.696H6.68197V3.808H7.90597ZM6.68197 4.208V6.6H7.98597C8.50864 6.6 8.89797 6.49333 9.15397 6.28C9.40997 6.06667 9.53797 5.75733 9.53797 5.352C9.53797 5.08533 9.4793 4.86933 9.36197 4.704C9.24464 4.53333 9.06597 4.408 8.82597 4.328C8.58597 4.248 8.28197 4.208 7.91397 4.208H6.68197ZM13.6968 1.624C13.3448 1.624 13.0275 1.68533 12.7448 1.808C12.4675 1.92533 12.2328 2.096 12.0408 2.32C11.8488 2.53867 11.7022 2.80267 11.6008 3.112C11.4995 3.416 11.4488 3.75467 11.4488 4.128C11.4488 4.64 11.5288 5.088 11.6888 5.472C11.8488 5.85067 12.0888 6.144 12.4088 6.352C12.7342 6.56 13.1368 6.664 13.6168 6.664C13.8942 6.664 14.1502 6.64267 14.3848 6.6C14.6195 6.55733 14.8355 6.504 15.0328 6.44V6.84C14.8408 6.91467 14.6248 6.97333 14.3848 7.016C14.1502 7.05867 13.8755 7.08 13.5608 7.08C12.9902 7.08 12.5102 6.95733 12.1208 6.712C11.7368 6.46667 11.4462 6.12267 11.2488 5.68C11.0568 5.23733 10.9608 4.72 10.9608 4.128C10.9608 3.70667 11.0222 3.31733 11.1448 2.96C11.2675 2.60267 11.4462 2.29333 11.6808 2.032C11.9155 1.77067 12.2008 1.568 12.5368 1.424C12.8782 1.28 13.2675 1.208 13.7048 1.208C13.9768 1.208 14.2382 1.23467 14.4888 1.288C14.7448 1.34133 14.9822 1.41867 15.2008 1.52L15.0168 1.928C14.8142 1.82667 14.6008 1.752 14.3768 1.704C14.1582 1.65067 13.9315 1.624 13.6968 1.624Z" fill="current"/>
<path d="M6.60314 12.8805L9.24888 10.1283C9.33109 10.0428 9.43572 10 9.56278 10C9.68984 10 9.79447 10.0428 9.87668 10.1283C9.95889 10.2138 10 10.3226 10 10.4548C10 10.587 9.95889 10.6958 9.87668 10.7813L6.91704 13.8601C6.82735 13.9534 6.72272 14 6.60314 14C6.48356 14 6.37892 13.9534 6.28924 13.8601L5.12332 12.6472C5.04111 12.5617 5 12.4529 5 12.3207C5 12.1885 5.04111 12.0797 5.12332 11.9942C5.20553 11.9086 5.31016 11.8659 5.43722 11.8659C5.56427 11.8659 5.66891 11.9086 5.75112 11.9942L6.60314 12.8805Z" fill="current"/>
</svg>
